<svg width="39" height="47" viewBox="0 0 39 47" fill="none" xmlns="http://www.w3.org/2000/svg">
<path d="M11.036 33.1205H9.37959C8.41615 33.1205 7.31748 33.1713 6.11741 33.2558C5.3568 33.3234 4.83282 33.3572 4.54548 33.3572C3.51443 33.3572 2.6693 33.1205 2.02701 32.6472C1.40162 32.2245 1.04666 31.5314 1.06357 30.7707C1.06357 30.2297 1.19879 29.8071 1.48613 29.5197C1.77347 29.2323 2.22984 28.9787 2.88903 28.7927C3.49752 28.6406 3.92009 28.387 4.13982 28.0489C4.35955 27.7108 4.52857 27.0345 4.64689 26.0202C4.76521 24.8706 4.88353 22.6222 4.98494 19.2749C5.08636 15.9276 5.13706 12.6141 5.13706 9.31753C5.13706 8.0158 5.03565 7.15362 4.83282 6.73098C4.62999 6.29144 4.17362 5.95333 3.42991 5.69974C2.36506 5.29401 1.84108 4.61779 1.84108 3.63727C1.84108 2.87652 2.21293 2.30173 2.93974 1.86219C3.66655 1.42264 4.66379 1.20287 5.96529 1.20287C6.40475 1.20287 6.91182 1.20287 7.48651 1.21977C8.788 1.27049 9.71764 1.2874 10.3092 1.2874C12.5065 1.2874 15.0081 1.21977 17.7801 1.08453C18.3717 1.05072 19.0985 1.03381 19.9774 1.03381C23.5101 1.03381 26.299 1.43955 28.3442 2.23411C31.4035 3.4344 33.6854 5.46307 35.2404 8.28629C36.6095 10.7883 37.3025 13.7468 37.3025 17.2124C37.3025 18.9875 37.049 20.7457 36.5419 22.4531C36.1024 24.0592 35.4094 25.5976 34.4798 27.0007C32.6881 29.5873 30.2204 31.4131 27.0765 32.4612C25.1665 33.0867 23.172 33.4079 21.1606 33.391L18.3548 33.2896L15.9547 33.222C14.0954 33.1544 12.4389 33.1205 11.036 33.1205ZM15.887 8.06652V25.9526C15.887 26.9162 16.0899 27.6093 16.5124 28.0151C16.935 28.4208 17.628 28.6237 18.5914 28.6237C23.0875 28.6237 25.3355 25.2087 25.3355 18.362C25.3355 14.5921 24.8116 11.6505 23.7636 9.57112C22.6142 7.28887 20.6535 6.13929 17.8984 6.13929C17.1547 6.13929 16.6477 6.29144 16.3434 6.57883C16.0392 6.86623 15.887 7.37339 15.887 8.06652Z" fill="url(#paint0_linear_36_140)"/>
<path d="M11.0361 33.1205H9.37962C8.41618 33.1205 7.31752 33.1713 6.11744 33.2558C5.35683 33.3234 4.83285 33.3403 4.54551 33.3403C3.51446 33.3403 2.66933 33.1036 2.02704 32.6303C1.38475 32.1569 1.0636 31.5314 1.0636 30.7538C1.0636 30.2128 1.19882 29.7902 1.48616 29.4859C1.7735 29.1816 2.22987 28.9449 2.88907 28.7589C3.49756 28.6068 3.92012 28.3532 4.13985 28.0151C4.35958 27.6601 4.52861 27.0007 4.64693 25.9864C4.76524 24.8368 4.88356 22.5884 4.98497 19.2411C5.08639 15.8938 5.1371 12.5803 5.1371 9.28372C5.1371 7.98199 5.03568 7.11981 4.83285 6.69717C4.63002 6.25763 4.15675 5.91952 3.42995 5.64903C2.36509 5.24329 1.84111 4.56707 1.84111 3.58655C1.84111 2.8258 2.21297 2.2341 2.93977 1.81147C3.66658 1.38883 4.69763 1.16906 5.99912 1.16906C6.43859 1.16906 6.94566 1.16906 7.52035 1.18596C8.82184 1.23668 9.75148 1.25358 10.3431 1.25358C12.5404 1.25358 15.042 1.18596 17.814 1.05072C18.4055 1.01691 19.1324 1 20.0113 1C23.5439 1 26.3328 1.40573 28.378 2.20029C31.4205 3.40059 33.7192 5.42925 35.2573 8.25248C36.6264 10.7545 37.3194 13.7299 37.3194 17.1786C37.3194 18.9199 37.0659 20.6612 36.5588 22.4193C36.0517 24.1606 35.3587 25.6821 34.4967 26.9669C32.705 29.5535 30.2373 31.3793 27.0934 32.4274C25.2511 33.036 23.2735 33.3572 21.1776 33.3572L18.3886 33.2727L15.9885 33.2051C14.0954 33.1544 12.439 33.1205 11.0361 33.1205ZM15.8871 8.06652V25.9526C15.8871 26.9162 16.0899 27.6093 16.5125 28.0151C16.935 28.4208 17.628 28.6237 18.5915 28.6237C23.0875 28.6237 25.3356 25.2087 25.3356 18.362C25.3356 14.5921 24.8116 11.6674 23.7636 9.57111C22.6143 7.27196 20.6536 6.12238 17.8985 6.12238C17.1548 6.12238 16.6308 6.27453 16.3434 6.56193C16.0392 6.88313 15.8871 7.37339 15.8871 8.06652Z" stroke="black" stroke-width="2" stroke-miterlimit="10"/>
<path d="M11.0361 33.1205H9.37962C8.41618 33.1205 7.31752 33.1713 6.11744 33.2558C5.35683 33.3234 4.83285 33.3403 4.54551 33.3403C3.51446 33.3403 2.66933 33.1036 2.02704 32.6303C1.38475 32.1569 1.0636 31.5314 1.0636 30.7538C1.0636 30.2128 1.19882 29.7902 1.48616 29.4859C1.7735 29.1816 2.22987 28.9449 2.88907 28.7589C3.49756 28.6068 3.92012 28.3532 4.13985 28.0151C4.35958 27.6601 4.52861 27.0007 4.64693 25.9864C4.76524 24.8368 4.88356 22.5884 4.98497 19.2411C5.08639 15.8938 5.1371 12.5803 5.1371 9.28372C5.1371 7.98199 5.03568 7.11981 4.83285 6.69717C4.63002 6.25763 4.15675 5.91952 3.42995 5.64903C2.36509 5.24329 1.84111 4.56707 1.84111 3.58655C1.84111 2.8258 2.21297 2.2341 2.93977 1.81147C3.66658 1.38883 4.69763 1.16906 5.99912 1.16906C6.43859 1.16906 6.94566 1.16906 7.52035 1.18596C8.82184 1.23668 9.75148 1.25358 10.3431 1.25358C12.5404 1.25358 15.042 1.18596 17.814 1.05072C18.4055 1.01691 19.1324 1 20.0113 1C23.5439 1 26.3328 1.40573 28.378 2.20029C31.4205 3.40059 33.7192 5.42925 35.2573 8.25248C36.6264 10.7545 37.3194 13.7299 37.3194 17.1786C37.3194 18.9199 37.0659 20.6612 36.5588 22.4193C36.0517 24.1606 35.3587 25.6821 34.4967 26.9669C32.705 29.5535 30.2373 31.3793 27.0934 32.4274C25.2511 33.036 23.2735 33.3572 21.1776 33.3572L18.3886 33.2727L15.9885 33.2051C14.0954 33.1544 12.439 33.1205 11.0361 33.1205ZM15.8871 8.06652V25.9526C15.8871 26.9162 16.0899 27.6093 16.5125 28.0151C16.935 28.4208 17.628 28.6237 18.5915 28.6237C23.0875 28.6237 25.3356 25.2087 25.3356 18.362C25.3356 14.5921 24.8116 11.6674 23.7636 9.57111C22.6143 7.27196 20.6536 6.12238 17.8985 6.12238C17.1548 6.12238 16.6308 6.27453 16.3434 6.56193C16.0392 6.88313 15.8871 7.37339 15.8871 8.06652Z" stroke="white" stroke-width="0.75" stroke-miterlimit="10"/>
<path d="M6.51204 41.488L3.17581 44.9693H35.0875L31.7513 41.488L35.2326 38.0067H3.03076L6.51204 41.488Z" fill="url(#paint1_linear_36_140)"/>
<path d="M2.45053 45.6945L1 47H37.2633L35.8128 45.6945H2.45053Z" fill="url(#paint2_linear_36_140)"/>
<path d="M35.8128 37.4265L37.2633 35.976H1L2.45053 37.4265H35.8128Z" fill="url(#paint3_linear_36_140)"/>
<path d="M35.2348 38.0067L35.8254 37.4265H2.44922L3.03889 38.0067H35.2348Z" fill="white"/>
<path d="M3.17806 44.9692L2.45312 45.6945H35.8227L35.1081 44.9692H3.17806Z" fill="white"/>
<defs>
<linearGradient id="paint0_linear_36_140" x1="19.1643" y1="33.7477" x2="19.1643" y2="1.04227" gradientUnits="userSpaceOnUse">
<stop stop-color="#00B456"/>
<stop offset="0.5"/>
</linearGradient>
<linearGradient id="paint1_linear_36_140" x1="19.132" y1="47.0105" x2="19.132" y2="35.9723" gradientUnits="userSpaceOnUse">
<stop stop-color="#005A2B"/>
<stop offset="0.25" stop-color="#008741"/>
<stop offset="0.5" stop-color="#00B456"/>
<stop offset="0.75" stop-color="#008741"/>
<stop offset="1" stop-color="#005A2B"/>
</linearGradient>
<linearGradient id="paint2_linear_36_140" x1="19.132" y1="47.0033" x2="19.132" y2="36.3962" gradientUnits="userSpaceOnUse">
<stop stop-color="#005A2B"/>
<stop offset="0.25" stop-color="#008741"/>
<stop offset="0.5" stop-color="#00B456"/>
<stop offset="0.75" stop-color="#008741"/>
<stop offset="1" stop-color="#005A2B"/>
</linearGradient>
<linearGradient id="paint3_linear_36_140" x1="19.132" y1="47.7652" x2="19.132" y2="35.9796" gradientUnits="userSpaceOnUse">
<stop stop-color="#005A2B"/>
<stop offset="0.25" stop-color="#008741"/>
<stop offset="0.5" stop-color="#00B456"/>
<stop offset="0.75" stop-color="#008741"/>
<stop offset="1" stop-color="#005A2B"/>
</linearGradient>
</defs>
</svg>
